<?xml version="1.0" encoding="utf-8"?>
<!-- Generator: Adobe Illustrator 23.0.0, SVG Export Plug-In . SVG Version: 6.00 Build 0)  -->
<svg version="1.1" id="Layer_1" xmlns="http://www.w3.org/2000/svg" xmlns:xlink="http://www.w3.org/1999/xlink" x="0px" y="0px"
	 viewBox="0 0 24 24" style="enable-background:new 0 0 24 24;" xml:space="preserve">
<style type="text/css">
	.st0{fill:none;}
	.st1{fill:#6D6D6D;}
</style>
<path class="st0" d="M0,0h24v24H0V0z"/>
<path class="st1" d="M20,2H4C2.9,2,2,2.9,2,4v12c0,1.1,0.9,2,2,2h14l4,4V4C22,2.9,21.1,2,20,2z M17,14H7c-0.6,0-1-0.4-1-1s0.4-1,1-1
	h10c0.5,0,1,0.4,1,1S17.5,14,17,14z M17,11H7c-0.6,0-1-0.4-1-1s0.4-1,1-1h10c0.5,0,1,0.4,1,1S17.5,11,17,11z M17,8H7
	C6.4,8,6,7.6,6,7s0.4-1,1-1h10c0.5,0,1,0.4,1,1S17.5,8,17,8z"/>
</svg>
