<?xml version="1.0" encoding="utf-8"?>
<!-- Generator: Adobe Illustrator 23.0.0, SVG Export Plug-In . SVG Version: 6.00 Build 0)  -->
<svg version="1.1" id="Layer_1" xmlns="http://www.w3.org/2000/svg" xmlns:xlink="http://www.w3.org/1999/xlink" x="0px" y="0px"
	 viewBox="0 0 24 24" style="enable-background:new 0 0 24 24;" xml:space="preserve">
<style type="text/css">
	.st0{fill:none;}
	.st1{fill:#6D6D6D;}
</style>
<path class="st0" d="M0,0h24v24H0V0z"/>
<path class="st1" d="M12,2C6.6,2,2.1,5.3,0.2,10c1.9,4.7,6.4,8,11.8,8s9.9-3.3,11.8-8C21.9,5.3,17.3,2,12,2z M12,15.3
	c-3,0-5.3-2.4-5.3-5.3S9,4.7,12,4.7S17.3,7,17.3,10S14.9,15.3,12,15.3z M12,6.8c-1.8,0-3.2,1.4-3.2,3.2s1.4,3.2,3.2,3.2
	s3.2-1.4,3.2-3.2S13.8,6.8,12,6.8z"/>
</svg>
